<svg width="25" height="25" viewBox="0 0 25 25" fill="none" xmlns="http://www.w3.org/2000/svg">
<path d="M3.09277 4.62109C3.09277 4.20688 3.42856 3.87109 3.84277 3.87109C4.25699 3.87109 4.59277 4.20688 4.59277 4.62109V20.3711H20.3428C20.757 20.3711 21.0928 20.7069 21.0928 21.1211C21.0928 21.5353 20.757 21.8711 20.3428 21.8711H3.84277C3.42856 21.8711 3.09277 21.5353 3.09277 21.1211V4.62109ZM17.0928 4.87109C15.4359 4.87109 14.0928 6.21424 14.0928 7.87109C14.0928 9.52795 15.4359 10.8711 17.0928 10.8711C18.7496 10.8711 20.0928 9.52795 20.0928 7.87109C20.0928 6.21424 18.7496 4.87109 17.0928 4.87109ZM15.5928 7.87109C15.5928 7.04267 16.2643 6.37109 17.0928 6.37109C17.9212 6.37109 18.5928 7.04267 18.5928 7.87109C18.5928 8.69952 17.9212 9.37109 17.0928 9.37109C16.2643 9.37109 15.5928 8.69952 15.5928 7.87109ZM6.09277 9.87109C6.09277 8.21424 7.43592 6.87109 9.09277 6.87109C10.7496 6.87109 12.0928 8.21424 12.0928 9.87109C12.0928 11.5279 10.7496 12.8711 9.09277 12.8711C7.43592 12.8711 6.09277 11.5279 6.09277 9.87109ZM9.09277 8.37109C8.26435 8.37109 7.59277 9.04267 7.59277 9.87109C7.59277 10.6995 8.26435 11.3711 9.09277 11.3711C9.9212 11.3711 10.5928 10.6995 10.5928 9.87109C10.5928 9.04267 9.9212 8.37109 9.09277 8.37109ZM15.0928 12.8711C13.4359 12.8711 12.0928 14.2142 12.0928 15.8711C12.0928 17.5279 13.4359 18.8711 15.0928 18.8711C16.7496 18.8711 18.0928 17.5279 18.0928 15.8711C18.0928 14.2142 16.7496 12.8711 15.0928 12.8711ZM13.5928 15.8711C13.5928 15.0427 14.2643 14.3711 15.0928 14.3711C15.9212 14.3711 16.5928 15.0427 16.5928 15.8711C16.5928 16.6995 15.9212 17.3711 15.0928 17.3711C14.2643 17.3711 13.5928 16.6995 13.5928 15.8711Z" fill="#2B94F7"/>
</svg>
